<svg xmlns="http://www.w3.org/2000/svg" version="1.1" xmlns:xlink="http://www.w3.org/1999/xlink" xmlns:svgjs="http://svgjs.dev/svgjs" width="1000" height="1000" viewBox="0 0 1000 1000"><rect width="1000" height="1000" fill="#000000"></rect><g transform="matrix(0.7,0,0,0.7,149.5757759009848,282.1265587044535)"><svg viewBox="0 0 396 247" data-background-color="#ffffff" preserveAspectRatio="xMidYMid meet" height="623" width="1000" xmlns="http://www.w3.org/2000/svg" xmlns:xlink="http://www.w3.org/1999/xlink"><defs></defs><g id="tight-bounds" transform="matrix(1,0,0,1,0.23998963315716537,-0.09999999999999432)"><svg viewBox="0 0 395.52 247.2" height="247.2" width="395.52"><g><svg></svg></g><g><svg viewBox="0 0 395.52 247.2" height="247.2" width="395.52"><g><path d="M9.232 206.043c-2.393 0-4.363-0.774-5.912-2.322-1.548-1.548-2.322-3.519-2.322-5.912l0-52.704 68.522 0c-5.557 1.779-11.579 2.668-18.064 2.668h-33.991v50.036c0 2.393-0.774 4.363-2.322 5.912-1.548 1.548-3.519 2.322-5.911 2.322zM0.998 49.391c0-2.393 0.774-4.363 2.322-5.912 1.548-1.548 3.519-2.322 5.912-2.322h42.224c10.415 0 19.634 2.28 27.657 6.84 8.023 4.588 14.286 10.894 18.79 18.917 4.504 8.023 6.756 17.312 6.756 27.868 0 2.507-0.134 4.945-0.403 7.313l-16.232 0c0.393-2.341 0.589-4.779 0.589-7.313 0-7.46-1.576-14.004-4.729-19.634-3.181-5.63-7.586-10.063-13.216-13.301-5.63-3.237-12.034-4.856-19.212-4.856h-33.991l0 45.104h-16.467zM180.873 208.154c-9.008 0-17.34-1.309-24.996-3.927-7.685-2.59-14.342-6.277-19.972-11.062-5.63-4.785-9.923-10.345-12.879-16.679-1.126-2.252-1.154-4.321-0.084-6.207 1.042-1.914 2.829-3.223 5.362-3.927 1.97-0.563 3.913-0.352 5.827 0.633 1.886 0.985 3.322 2.463 4.307 4.434 2.111 4.082 5.208 7.741 9.289 10.978 4.082 3.237 8.937 5.728 14.568 7.474 5.63 1.773 11.823 2.66 18.578 2.66 7.46 0 14.075-1.239 19.846-3.716 5.771-2.449 10.317-6.038 13.638-10.767 3.293-4.701 4.94-10.429 4.94-17.185 0-5.798-1.444-11.051-4.333-15.758h18.277c1.542 4.73 2.312 9.913 2.313 15.547 0 7.6-1.365 14.356-4.096 20.267-2.759 5.911-6.629 10.866-11.612 14.863-5.011 4.025-10.852 7.094-17.523 9.205-6.7 2.111-13.85 3.167-21.45 3.167zM127.46 81.27c0-8.586 2.294-16.045 6.882-22.379 4.56-6.334 10.852-11.232 18.874-14.694 8.023-3.434 17.242-5.151 27.657-5.151 7.741 0 14.778 1.224 21.113 3.673 6.334 2.477 11.865 5.714 16.594 9.712 4.701 4.025 8.529 8.431 11.485 13.216 1.407 2.252 1.872 4.434 1.393 6.545-0.507 2.111-1.745 3.73-3.716 4.856-2.111 0.985-4.251 1.126-6.418 0.422-2.196-0.704-3.856-2.041-4.982-4.011-2.111-3.237-4.743-6.305-7.896-9.205-3.181-2.871-7.023-5.151-11.527-6.841-4.504-1.689-9.923-2.604-16.257-2.744-11.119 0-20.057 2.35-26.812 7.051-6.756 4.729-10.134 11.598-10.134 20.606 0 4.785 1.267 9.177 3.8 13.174 1.513 2.404 3.619 4.603 6.317 6.595l-20.569 0c-3.869-6.162-5.804-13.103-5.804-20.825zM260.888 206.043c-3.237 0-5.56-1.337-6.967-4.011-1.407-2.674-1.548-5.278-0.422-7.812l20.688-49.115 17.505 0-3.125 7.524h69.983l-3.102-7.524 17.419 0 20.817 49.326c1.267 2.674 1.098 5.278-0.507 7.812-1.633 2.533-3.927 3.8-6.882 3.8-1.689 0-3.195-0.422-4.518-1.267-1.351-0.844-2.449-2.111-3.294-3.8l-14.101-34.202-81.69 0-14.203 34.202c-0.704 1.689-1.717 2.956-3.04 3.8-1.351 0.844-2.871 1.267-4.561 1.267zM315.569 46.857c1.548-3.8 4.222-5.7 8.022-5.7 3.659 0 6.263 1.9 7.812 5.7l23.312 55.238-17 0-14.03-34.029-14.132 34.029-17.25 0z" fill="#202046" data-fill-palette-color="tertiary"></path></g><g transform="matrix(1,0,0,1,0,105.14784429460957)"><svg viewBox="0 0 395.52 36.904311410780856" height="36.904311410780856" width="395.52"><g><svg viewBox="0 0 395.52 36.904311410780856" height="36.904311410780856" width="395.52"><g><svg viewBox="0 0 395.52 36.904311410780856" height="36.904311410780856" width="395.52"><g><svg viewBox="0 0 395.52 36.904311410780856" height="36.904311410780856" width="395.52"><g><svg viewBox="0 0 395.52 36.904311410780856" height="36.904311410780856" width="395.52"><g><svg viewBox="0 0 395.52 20.921712846347607" height="20.921712846347607" width="395.52"><g transform="matrix(1,0,0,1,0,0)"><svg width="395.52" viewBox="5 -39.54999923706055 757.0820922851562 40.04999923706055" height="20.921712846347607" data-palette-color="#202046"><path d="M6.95 0L6.95 0Q6.1 0 5.55-0.55 5-1.1 5-1.95L5-1.95 5-37.1Q5-37.95 5.55-38.5 6.1-39.05 6.95-39.05L6.95-39.05 16.95-39.05Q20.65-39.05 23.5-37.43 26.35-35.8 27.95-32.95 29.55-30.1 29.55-26.35L29.55-26.35Q29.55-22.7 27.95-19.88 26.35-17.05 23.5-15.43 20.65-13.8 16.95-13.8L16.95-13.8 8.9-13.8 8.9-1.95Q8.9-1.1 8.35-0.55 7.8 0 6.95 0ZM8.9-35.3L8.9-17.55 16.95-17.55Q19.5-17.55 21.5-18.68 23.5-19.8 24.63-21.8 25.75-23.8 25.75-26.35L25.75-26.35Q25.75-29 24.63-31 23.5-33 21.5-34.15 19.5-35.3 16.95-35.3L16.95-35.3 8.9-35.3ZM37.55 0L37.55 0Q36.7 0 36.15-0.55 35.6-1.1 35.6-1.95L35.6-1.95 35.6-37.1Q35.6-37.95 36.15-38.5 36.7-39.05 37.55-39.05L37.55-39.05 46.9-39.05Q50.55-39.05 53.4-37.52 56.25-36 57.87-33.27 59.5-30.55 59.5-27L59.5-27Q59.5-23.6 57.87-20.95 56.25-18.3 53.4-16.8 50.55-15.3 46.9-15.3L46.9-15.3 39.5-15.3 39.5-1.95Q39.5-1.1 38.95-0.55 38.4 0 37.55 0ZM58.45 0L58.45 0Q57.8 0 57.42-0.25 57.05-0.5 56.75-1L56.75-1 47.15-16.3 51.05-17.3 60-3Q60.75-1.8 60.27-0.9 59.8 0 58.45 0ZM39.5-35.3L39.5-19.05 46.9-19.05Q49.45-19.05 51.42-20.08 53.4-21.1 54.55-22.9 55.7-24.7 55.7-27L55.7-27Q55.7-29.45 54.55-31.33 53.4-33.2 51.42-34.25 49.45-35.3 46.9-35.3L46.9-35.3 39.5-35.3ZM84.55 0.5L84.55 0.5Q80.2 0.5 76.55-1 72.9-2.5 70.22-5.2 67.55-7.9 66.07-11.55 64.59-15.2 64.59-19.55L64.59-19.55Q64.59-23.85 66.07-27.5 67.55-31.15 70.22-33.85 72.9-36.55 76.55-38.05 80.2-39.55 84.55-39.55L84.55-39.55Q88.84-39.55 92.5-38.05 96.15-36.55 98.84-33.85 101.55-31.15 103.02-27.5 104.5-23.85 104.5-19.55L104.5-19.55Q104.5-15.2 103.02-11.55 101.55-7.9 98.84-5.2 96.15-2.5 92.5-1 88.84 0.5 84.55 0.5ZM84.55-3.2L84.55-3.2Q88-3.2 90.95-4.42 93.9-5.65 96.07-7.88 98.25-10.1 99.45-13.08 100.65-16.05 100.65-19.55L100.65-19.55Q100.65-23 99.45-25.98 98.25-28.95 96.07-31.18 93.9-33.4 90.95-34.63 88-35.85 84.55-35.85L84.55-35.85Q81.05-35.85 78.09-34.63 75.15-33.4 72.97-31.18 70.8-28.95 69.59-25.98 68.4-23 68.4-19.55L68.4-19.55Q68.4-16.05 69.59-13.08 70.8-10.1 72.97-7.88 75.15-5.65 78.09-4.42 81.05-3.2 84.55-3.2ZM139.29 0L111.94 0Q111.09 0 110.57-0.55 110.04-1.1 109.99-1.83 109.94-2.55 110.39-3.15L110.39-3.15 136.24-35.55 112.14-35.55Q111.24-35.55 110.74-36 110.24-36.45 110.24-37.25L110.24-37.25Q110.24-38 110.79-38.53 111.34-39.05 112.19-39.05L112.19-39.05 139.29-39.05Q140.19-39.05 140.69-38.5 141.19-37.95 141.27-37.23 141.34-36.5 140.89-36L140.89-36 114.94-3.5 139.29-3.5Q140.09-3.5 140.67-3.03 141.24-2.55 141.24-1.75L141.24-1.75Q141.24-1 140.67-0.5 140.09 0 139.29 0L139.29 0ZM166.79 0.5L166.79 0.5Q162.44 0.5 158.79-1 155.14-2.5 152.47-5.2 149.79-7.9 148.31-11.55 146.84-15.2 146.84-19.55L146.84-19.55Q146.84-23.85 148.31-27.5 149.79-31.15 152.47-33.85 155.14-36.55 158.79-38.05 162.44-39.55 166.79-39.55L166.79-39.55Q171.09-39.55 174.74-38.05 178.39-36.55 181.09-33.85 183.79-31.15 185.27-27.5 186.74-23.85 186.74-19.55L186.74-19.55Q186.74-15.2 185.27-11.55 183.79-7.9 181.09-5.2 178.39-2.5 174.74-1 171.09 0.5 166.79 0.5ZM166.79-3.2L166.79-3.2Q170.24-3.2 173.19-4.42 176.14-5.65 178.31-7.88 180.49-10.1 181.69-13.08 182.89-16.05 182.89-19.55L182.89-19.55Q182.89-23 181.69-25.98 180.49-28.95 178.31-31.18 176.14-33.4 173.19-34.63 170.24-35.85 166.79-35.85L166.79-35.85Q163.29-35.85 160.34-34.63 157.39-33.4 155.22-31.18 153.04-28.95 151.84-25.98 150.64-23 150.64-19.55L150.64-19.55Q150.64-16.05 151.84-13.08 153.04-10.1 155.22-7.88 157.39-5.65 160.34-4.42 163.29-3.2 166.79-3.2ZM196.74 0L196.74 0Q195.89 0 195.34-0.55 194.79-1.1 194.79-1.95L194.79-1.95 194.79-37.1Q194.79-37.95 195.34-38.5 195.89-39.05 196.74-39.05L196.74-39.05Q197.64-39.05 198.24-38.35L198.24-38.35 222.14-6.95 222.14-37.1Q222.14-37.95 222.69-38.5 223.24-39.05 224.09-39.05L224.09-39.05Q224.89-39.05 225.46-38.5 226.04-37.95 226.04-37.1L226.04-37.1 226.04-1.95Q226.04-1.1 225.46-0.55 224.89 0 224.09 0L224.09 0Q223.69 0 223.29-0.15 222.89-0.3 222.64-0.65L222.64-0.65 198.69-32.05 198.69-1.95Q198.69-1.1 198.11-0.55 197.54 0 196.74 0ZM261.44 0L237.99 0Q237.14 0 236.59-0.55 236.04-1.1 236.04-1.95L236.04-1.95 236.04-37.1Q236.04-37.95 236.59-38.5 237.14-39.05 237.99-39.05L237.99-39.05 261.44-39.05Q262.24-39.05 262.81-38.53 263.39-38 263.39-37.15L263.39-37.15Q263.39-36.4 262.81-35.85 262.24-35.3 261.44-35.3L261.44-35.3 239.94-35.3 239.94-21.5 255.59-21.5Q256.44-21.5 256.99-20.95 257.54-20.4 257.54-19.6L257.54-19.6Q257.54-18.8 256.99-18.25 256.44-17.7 255.59-17.7L255.59-17.7 239.94-17.7 239.94-3.75 261.44-3.75Q262.24-3.75 262.81-3.2 263.39-2.65 263.39-1.9L263.39-1.9Q263.39-1.05 262.81-0.53 262.24 0 261.44 0L261.44 0ZM297.28 0.5L297.28 0.5Q294.08 0.5 291.36-0.43 288.63-1.35 286.63-3.05 284.63-4.75 283.58-7L283.58-7Q283.18-7.8 283.56-8.47 283.93-9.15 284.83-9.4L284.83-9.4Q285.53-9.6 286.21-9.25 286.88-8.9 287.23-8.2L287.23-8.2Q287.98-6.75 289.43-5.6 290.88-4.45 292.88-3.83 294.88-3.2 297.28-3.2L297.28-3.2Q299.93-3.2 301.98-4.08 304.03-4.95 305.21-6.63 306.38-8.3 306.38-10.7L306.38-10.7Q306.38-13.75 304.13-15.95 301.88-18.15 297.08-18.75L297.08-18.75Q291.23-19.45 287.93-22.38 284.63-25.3 284.63-29.55L284.63-29.55Q284.63-32.6 286.26-34.85 287.88-37.1 290.73-38.33 293.58-39.55 297.28-39.55L297.28-39.55Q300.03-39.55 302.28-38.68 304.53-37.8 306.21-36.38 307.88-34.95 308.93-33.25L308.93-33.25Q309.43-32.45 309.26-31.7 309.08-30.95 308.38-30.55L308.38-30.55Q307.63-30.2 306.86-30.45 306.08-30.7 305.68-31.4L305.68-31.4Q304.93-32.55 303.81-33.58 302.68-34.6 301.08-35.2 299.48-35.8 297.23-35.85L297.23-35.85Q293.28-35.85 290.88-34.18 288.48-32.5 288.48-29.3L288.48-29.3Q288.48-27.6 289.38-26.18 290.28-24.75 292.36-23.73 294.43-22.7 297.93-22.2L297.93-22.2Q304.18-21.3 307.21-18.38 310.23-15.45 310.23-10.75L310.23-10.75Q310.23-8.05 309.26-5.95 308.28-3.85 306.51-2.43 304.73-1 302.36-0.25 299.98 0.5 297.28 0.5ZM320.33 0L320.33 0Q319.48 0 318.93-0.55 318.38-1.1 318.38-1.95L318.38-1.95 318.38-37.1Q318.38-37.95 318.93-38.5 319.48-39.05 320.33-39.05L320.33-39.05 330.33-39.05Q334.03-39.05 336.88-37.43 339.73-35.8 341.33-32.95 342.93-30.1 342.93-26.35L342.93-26.35Q342.93-22.7 341.33-19.88 339.73-17.05 336.88-15.43 334.03-13.8 330.33-13.8L330.33-13.8 322.28-13.8 322.28-1.95Q322.28-1.1 321.73-0.55 321.18 0 320.33 0ZM322.28-35.3L322.28-17.55 330.33-17.55Q332.88-17.55 334.88-18.68 336.88-19.8 338-21.8 339.13-23.8 339.13-26.35L339.13-26.35Q339.13-29 338-31 336.88-33 334.88-34.15 332.88-35.3 330.33-35.3L330.33-35.3 322.28-35.3ZM367.03 0.5L367.03 0.5Q362.68 0.5 359.03-1 355.38-2.5 352.7-5.2 350.03-7.9 348.55-11.55 347.08-15.2 347.08-19.55L347.08-19.55Q347.08-23.85 348.55-27.5 350.03-31.15 352.7-33.85 355.38-36.55 359.03-38.05 362.68-39.55 367.03-39.55L367.03-39.55Q371.33-39.55 374.98-38.05 378.63-36.55 381.33-33.85 384.03-31.15 385.5-27.5 386.98-23.85 386.98-19.55L386.98-19.55Q386.98-15.2 385.5-11.55 384.03-7.9 381.33-5.2 378.63-2.5 374.98-1 371.33 0.5 367.03 0.5ZM367.03-3.2L367.03-3.2Q370.48-3.2 373.43-4.42 376.38-5.65 378.55-7.88 380.73-10.1 381.93-13.08 383.13-16.05 383.13-19.55L383.13-19.55Q383.13-23 381.93-25.98 380.73-28.95 378.55-31.18 376.38-33.4 373.43-34.63 370.48-35.85 367.03-35.85L367.03-35.85Q363.53-35.85 360.58-34.63 357.63-33.4 355.45-31.18 353.28-28.95 352.08-25.98 350.88-23 350.88-19.55L350.88-19.55Q350.88-16.05 352.08-13.08 353.28-10.1 355.45-7.88 357.63-5.65 360.58-4.42 363.53-3.2 367.03-3.2ZM396.97 0L396.97 0Q396.12 0 395.57-0.55 395.02-1.1 395.02-1.95L395.02-1.95 395.02-37.1Q395.02-37.95 395.57-38.5 396.12-39.05 396.97-39.05L396.97-39.05 406.32-39.05Q409.97-39.05 412.82-37.52 415.67-36 417.3-33.27 418.92-30.55 418.92-27L418.92-27Q418.92-23.6 417.3-20.95 415.67-18.3 412.82-16.8 409.97-15.3 406.32-15.3L406.32-15.3 398.92-15.3 398.92-1.95Q398.92-1.1 398.37-0.55 397.82 0 396.97 0ZM417.87 0L417.87 0Q417.22 0 416.85-0.25 416.47-0.5 416.17-1L416.17-1 406.57-16.3 410.47-17.3 419.42-3Q420.17-1.8 419.7-0.9 419.22 0 417.87 0ZM398.92-35.3L398.92-19.05 406.32-19.05Q408.87-19.05 410.85-20.08 412.82-21.1 413.97-22.9 415.12-24.7 415.12-27L415.12-27Q415.12-29.45 413.97-31.33 412.82-33.2 410.85-34.25 408.87-35.3 406.32-35.3L406.32-35.3 398.92-35.3ZM437.27 0L437.27 0Q436.47 0 435.9-0.58 435.32-1.15 435.32-1.95L435.32-1.95 435.32-39.05 439.22-39.05 439.22-1.95Q439.22-1.15 438.67-0.58 438.12 0 437.27 0ZM451.12-35.5L423.47-35.5Q422.67-35.5 422.17-36 421.67-36.5 421.67-37.25L421.67-37.25Q421.67-38.05 422.17-38.55 422.67-39.05 423.47-39.05L423.47-39.05 451.12-39.05Q451.92-39.05 452.42-38.55 452.92-38.05 452.92-37.25L452.92-37.25Q452.92-36.5 452.42-36 451.92-35.5 451.12-35.5L451.12-35.5ZM469.17 0.5L469.17 0.5Q465.97 0.5 463.24-0.43 460.52-1.35 458.52-3.05 456.52-4.75 455.47-7L455.47-7Q455.07-7.8 455.44-8.47 455.82-9.15 456.72-9.4L456.72-9.4Q457.42-9.6 458.09-9.25 458.77-8.9 459.12-8.2L459.12-8.2Q459.87-6.75 461.32-5.6 462.77-4.45 464.77-3.83 466.77-3.2 469.17-3.2L469.17-3.2Q471.82-3.2 473.87-4.08 475.92-4.95 477.09-6.63 478.27-8.3 478.27-10.7L478.27-10.7Q478.27-13.75 476.02-15.95 473.77-18.15 468.97-18.75L468.97-18.75Q463.12-19.45 459.82-22.38 456.52-25.3 456.52-29.55L456.52-29.55Q456.52-32.6 458.14-34.85 459.77-37.1 462.62-38.33 465.47-39.55 469.17-39.55L469.17-39.55Q471.92-39.55 474.17-38.68 476.42-37.8 478.09-36.38 479.77-34.95 480.82-33.25L480.82-33.25Q481.32-32.45 481.14-31.7 480.97-30.95 480.27-30.55L480.27-30.55Q479.52-30.2 478.74-30.45 477.97-30.7 477.57-31.4L477.57-31.4Q476.82-32.55 475.69-33.58 474.57-34.6 472.97-35.2 471.37-35.8 469.12-35.85L469.12-35.85Q465.17-35.85 462.77-34.18 460.37-32.5 460.37-29.3L460.37-29.3Q460.37-27.6 461.27-26.18 462.17-24.75 464.24-23.73 466.32-22.7 469.82-22.2L469.82-22.2Q476.07-21.3 479.09-18.38 482.12-15.45 482.12-10.75L482.12-10.75Q482.12-8.05 481.14-5.95 480.17-3.85 478.39-2.43 476.62-1 474.24-0.25 471.87 0.5 469.17 0.5ZM502.76 0L502.76 0Q501.61 0 501.11-0.95 500.61-1.9 501.01-2.8L501.01-2.8 515.71-37.7Q516.26-39.05 517.61-39.05L517.61-39.05Q518.91-39.05 519.46-37.7L519.46-37.7 534.21-2.75Q534.66-1.8 534.09-0.9 533.51 0 532.46 0L532.46 0Q531.86 0 531.39-0.3 530.91-0.6 530.61-1.2L530.61-1.2 516.86-34.55 518.41-34.55 504.56-1.2Q504.31-0.6 503.84-0.3 503.36 0 502.76 0ZM529.36-9.3L506.06-9.3 507.56-12.65 527.86-12.65 529.36-9.3ZM556.61 0.5L556.61 0.5Q552.56 0.5 549.04-1.05 545.51-2.6 542.84-5.38 540.16-8.15 538.66-11.78 537.16-15.4 537.16-19.55L537.16-19.55Q537.16-23.65 538.64-27.28 540.11-30.9 542.79-33.65 545.46-36.4 548.99-37.98 552.51-39.55 556.61-39.55L556.61-39.55Q560.21-39.55 563.16-38.5 566.11-37.45 568.86-35.15L568.86-35.15Q569.31-34.8 569.39-34.33 569.46-33.85 569.26-33.43 569.06-33 568.66-32.8L568.66-32.8Q568.56-32.4 568.16-32.2 567.76-32 567.24-32.05 566.71-32.1 566.21-32.5L566.21-32.5Q564.26-34.2 561.96-35.02 559.66-35.85 556.61-35.85L556.61-35.85Q553.36-35.85 550.54-34.55 547.71-33.25 545.56-31 543.41-28.75 542.19-25.8 540.96-22.85 540.96-19.55L540.96-19.55Q540.96-16.15 542.19-13.2 543.41-10.25 545.56-8 547.71-5.75 550.54-4.48 553.36-3.2 556.61-3.2L556.61-3.2Q559.36-3.2 561.81-4.1 564.26-5 566.46-6.7L566.46-6.7Q567.06-7.2 567.74-7.1 568.41-7 568.91-6.5 569.41-6 569.41-5.2L569.41-5.2Q569.41-4.8 569.29-4.48 569.16-4.15 568.86-3.8L568.86-3.8Q566.31-1.45 563.16-0.48 560.01 0.5 556.61 0.5ZM575.46 0L575.46 0Q574.31 0 573.81-0.95 573.31-1.9 573.71-2.8L573.71-2.8 588.41-37.7Q588.96-39.05 590.31-39.05L590.31-39.05Q591.61-39.05 592.16-37.7L592.16-37.7 606.91-2.75Q607.36-1.8 606.78-0.9 606.21 0 605.16 0L605.16 0Q604.56 0 604.08-0.3 603.61-0.6 603.31-1.2L603.31-1.2 589.56-34.55 591.11-34.55 577.26-1.2Q577.01-0.6 576.53-0.3 576.06 0 575.46 0ZM602.06-9.3L578.76-9.3 580.26-12.65 600.56-12.65 602.06-9.3ZM623.7 0L614.7 0Q613.85 0 613.3-0.55 612.75-1.1 612.75-1.95L612.75-1.95 612.75-37.1Q612.75-37.95 613.3-38.5 613.85-39.05 614.7-39.05L614.7-39.05 623.7-39.05Q628-39.05 631.58-37.63 635.15-36.2 637.75-33.58 640.35-30.95 641.78-27.4 643.2-23.85 643.2-19.55L643.2-19.55Q643.2-15.25 641.78-11.68 640.35-8.1 637.75-5.48 635.15-2.85 631.58-1.43 628 0 623.7 0L623.7 0ZM616.65-35.55L616.65-3.5 623.7-3.5Q628.3-3.5 631.83-5.58 635.35-7.65 637.35-11.28 639.35-14.9 639.35-19.55L639.35-19.55Q639.35-24.2 637.35-27.83 635.35-31.45 631.83-33.5 628.3-35.55 623.7-35.55L623.7-35.55 616.65-35.55ZM676.65 0L653.2 0Q652.35 0 651.8-0.55 651.25-1.1 651.25-1.95L651.25-1.95 651.25-37.1Q651.25-37.95 651.8-38.5 652.35-39.05 653.2-39.05L653.2-39.05 676.65-39.05Q677.45-39.05 678.03-38.53 678.6-38 678.6-37.15L678.6-37.15Q678.6-36.4 678.03-35.85 677.45-35.3 676.65-35.3L676.65-35.3 655.15-35.3 655.15-21.5 670.8-21.5Q671.65-21.5 672.2-20.95 672.75-20.4 672.75-19.6L672.75-19.6Q672.75-18.8 672.2-18.25 671.65-17.7 670.8-17.7L670.8-17.7 655.15-17.7 655.15-3.75 676.65-3.75Q677.45-3.75 678.03-3.2 678.6-2.65 678.6-1.9L678.6-1.9Q678.6-1.05 678.03-0.53 677.45 0 676.65 0L676.65 0ZM687.8 0L687.8 0Q687 0 686.42-0.58 685.85-1.15 685.85-1.95L685.85-1.95 685.85-37.1Q685.85-37.95 686.42-38.5 687-39.05 687.8-39.05L687.8-39.05Q689-39.05 689.55-38.05L689.55-38.05 706.4-4.55 704.7-4.55 721.25-38.05Q721.85-39.05 723-39.05L723-39.05Q723.8-39.05 724.35-38.5 724.9-37.95 724.9-37.1L724.9-37.1 724.9-1.95Q724.9-1.15 724.35-0.58 723.8 0 723 0L723 0Q722.15 0 721.57-0.58 721-1.15 721-1.95L721-1.95 721-32.05 721.85-32 707.1-1.85Q706.55-0.9 705.4-0.9L705.4-0.9Q704.15-0.9 703.6-2.1L703.6-2.1 688.75-31.8 689.75-32.05 689.75-1.95Q689.75-1.15 689.17-0.58 688.6 0 687.8 0ZM746.1 0L746.1 0Q745.3 0 744.72-0.58 744.15-1.15 744.15-1.95L744.15-1.95 744.15-14.45 730.55-36Q730.05-36.75 730.17-37.45 730.3-38.15 730.8-38.6 731.3-39.05 732.05-39.05L732.05-39.05Q732.65-39.05 733.02-38.8 733.4-38.55 733.7-38.1L733.7-38.1 747.2-16.35 745.1-16.35 758.55-38Q758.9-38.55 759.32-38.8 759.75-39.05 760.35-39.05L760.35-39.05Q761.05-39.05 761.52-38.58 762-38.1 762.07-37.4 762.15-36.7 761.7-36L761.7-36 748.05-14.45 748.05-1.95Q748.05-1.15 747.47-0.58 746.9 0 746.1 0Z" opacity="1" transform="matrix(1,0,0,1,0,0)" fill="#ffffff" class="undefined-text-0" data-fill-palette-color="primary" id="text-0"></path></svg></g></svg></g><g transform="matrix(1,0,0,1,0,23.974692871738036)"><svg viewBox="0 0 395.52 12.92961853904282" height="12.92961853904282" width="395.52"><g transform="matrix(1,0,0,1,0,0)"><svg width="395.52" viewBox="1.809999942779541 -38.09000015258789 1491.419921875 48.76000213623047" height="12.92961853904282" data-palette-color="#3886ce"><path d="M12.7 0L1.81 0 1.81-2.12 5.79-2.44 5.79-35.62 1.81-35.94 1.81-38.09 8.72-38.09 8.72-2.44 12.7-2.12 12.7 0ZM74.76 0.51L74.76 0.51Q71.37 0.51 68.78-1.14 66.19-2.78 64.73-5.7 63.26-8.62 63.26-12.43L63.26-12.43 63.26-13.77Q63.26-17.55 64.73-20.52 66.19-23.49 68.7-25.2 71.2-26.9 74.28-26.9L74.28-26.9Q77.52-26.9 79.83-25.51 82.14-24.12 83.37-21.59 84.6-19.07 84.6-15.65L84.6-15.65 84.6-13.16 66.29-13.16 66.24-12.08Q66.27-9.16 67.33-6.86 68.39-4.57 70.31-3.25 72.22-1.93 74.76-1.93L74.76-1.93Q77.25-1.93 79.15-2.72 81.04-3.52 82.48-4.88L82.48-4.88 83.72-2.88Q82.19-1.42 80-0.45 77.82 0.51 74.76 0.51ZM66.44-15.75L66.49-15.6 81.67-15.6 81.67-16.33Q81.67-18.65 80.78-20.5 79.89-22.34 78.24-23.39 76.59-24.44 74.28-24.44L74.28-24.44Q72.18-24.44 70.49-23.3 68.81-22.17 67.74-20.2 66.68-18.24 66.44-15.75L66.44-15.75ZM144.03 0.51L144.03 0.51Q140.27 0.51 138.15-1.49 136.03-3.49 136.03-6.91L136.03-6.91Q136.03-9.35 137.44-11.19 138.86-13.04 141.46-14.06 144.06-15.09 147.62-15.09L147.62-15.09 153.09-15.09 153.09-18.12Q153.09-20.97 151.39-22.72 149.7-24.46 146.28-24.46L146.28-24.46Q144.35-24.46 142.83-23.84 141.3-23.22 140.18-22.27L140.18-22.27 139.93-18.24 137.52-18.24 137.52-23.75Q139.22-25.22 141.4-26.06 143.57-26.9 146.33-26.9L146.33-26.9Q150.99-26.9 153.51-24.56 156.02-22.22 156.02-18.07L156.02-18.07 156.02-5.32Q156.02-4.54 156.07-3.77 156.12-3 156.24-2.25L156.24-2.25 159.39-2.12 159.39 0 153.63 0Q153.34-1.44 153.23-2.32 153.12-3.2 153.09-4.3L153.09-4.3Q151.65-2.17 149.28-0.83 146.91 0.51 144.03 0.51ZM144.38-2.05L144.38-2.05Q147.09-2.05 149.52-3.48 151.94-4.91 153.09-7.28L153.09-7.28 153.09-12.84 147.6-12.84Q143.55-12.84 141.25-11.1 138.96-9.35 138.96-6.81L138.96-6.81Q138.96-4.69 140.42-3.37 141.89-2.05 144.38-2.05ZM220.53 0L209.64 0 209.64-2.12 213.62-2.44 213.62-23.95 209.64-24.27 209.64-26.42 216.19-26.42 216.5-22.39 216.53-21.68Q217.65-24.15 219.58-25.52 221.51-26.9 224.19-26.9L224.19-26.9Q224.85-26.9 225.6-26.79 226.34-26.68 226.68-26.56L226.68-26.56 226.32-23.88 223.61-24.05Q220.8-24.12 219.02-22.44 217.24-20.75 216.55-17.97L216.55-17.97 216.55-2.44 220.53-2.12 220.53 0ZM287.46 0L276.57 0 276.57-2.12 280.55-2.44 280.55-23.95 276.57-24.27 276.57-26.42 283.14-26.42 283.38-21.68Q284.65-24.17 286.8-25.54 288.95-26.9 291.93-26.9L291.93-26.9Q296.22-26.9 298.47-24.28 300.71-21.66 300.71-16.06L300.71-16.06 300.71-2.44 304.69-2.12 304.69 0 293.81 0 293.81-2.12 297.79-2.44 297.79-16.04Q297.79-20.63 296.1-22.51 294.42-24.39 291.29-24.39L291.29-24.39Q288.02-24.39 286.12-22.56 284.21-20.73 283.48-17.77L283.48-17.77 283.48-2.44 287.46-2.12 287.46 0ZM367.03 0.51L367.03 0.51Q363.64 0.51 361.05-1.14 358.46-2.78 357-5.7 355.53-8.62 355.53-12.43L355.53-12.43 355.53-13.77Q355.53-17.55 357-20.52 358.46-23.49 360.96-25.2 363.47-26.9 366.54-26.9L366.54-26.9Q369.79-26.9 372.1-25.51 374.4-24.12 375.64-21.59 376.87-19.07 376.87-15.65L376.87-15.65 376.87-13.16 358.56-13.16 358.51-12.08Q358.53-9.16 359.6-6.86 360.66-4.57 362.58-3.25 364.49-1.93 367.03-1.93L367.03-1.93Q369.52-1.93 371.41-2.72 373.31-3.52 374.75-4.88L374.75-4.88 375.99-2.88Q374.45-1.42 372.27-0.45 370.08 0.51 367.03 0.51ZM358.71-15.75L358.75-15.6 373.94-15.6 373.94-16.33Q373.94-18.65 373.05-20.5 372.16-22.34 370.51-23.39 368.86-24.44 366.54-24.44L366.54-24.44Q364.44-24.44 362.76-23.3 361.07-22.17 360.01-20.2 358.95-18.24 358.71-15.75L358.71-15.75ZM438.74 0L427.85 0 427.85-2.12 431.83-2.44 431.83-23.95 427.85-24.27 427.85-26.42 434.4-26.42 434.71-22.39 434.74-21.68Q435.86-24.15 437.79-25.52 439.72-26.9 442.41-26.9L442.41-26.9Q443.06-26.9 443.81-26.79 444.55-26.68 444.9-26.56L444.9-26.56 444.53-23.88 441.82-24.05Q439.01-24.12 437.23-22.44 435.45-20.75 434.76-17.97L434.76-17.97 434.76-2.44 438.74-2.12 438.74 0ZM504.96 0.51L504.96 0.51Q502.18 0.51 499.8-0.23 497.42-0.98 495.32-2.39L495.32-2.39 495.29-7.81 497.69-7.81 498.1-3.93Q499.52-2.83 501.25-2.34 502.98-1.86 504.96-1.86L504.96-1.86Q508.28-1.86 510.02-3.3 511.75-4.74 511.75-6.71L511.75-6.71Q511.75-8.57 510.2-10 508.65-11.43 504.69-12.3L504.69-12.3Q499.96-13.33 497.84-15.04 495.73-16.75 495.73-19.8L495.73-19.8Q495.73-21.8 496.86-23.41 497.98-25.02 500.04-25.96 502.11-26.9 504.89-26.9L504.89-26.9Q507.79-26.9 509.94-26.06 512.09-25.22 513.63-23.8L513.63-23.8 513.75-18.38 511.36-18.38 511.02-22.29Q509.92-23.34 508.45-23.91 506.99-24.49 504.89-24.49L504.89-24.49Q501.91-24.49 500.3-23.11 498.69-21.73 498.69-19.9L498.69-19.9Q498.69-18.7 499.19-17.81 499.69-16.92 501.12-16.21 502.54-15.5 505.28-14.87L505.28-14.87Q510.24-13.75 512.46-11.83 514.68-9.91 514.68-6.86L514.68-6.86Q514.68-3.64 512.18-1.56 509.67 0.51 504.96 0.51ZM635.49 0L624.61 0 624.61-2.12 628.59-2.44 628.59-23.95 624.61-24.27 624.61-26.42 631.52-26.42 631.52-2.44 635.49-2.12 635.49 0ZM631.52-33.86L628.24-33.86 628.24-38.09 631.52-38.09 631.52-33.86ZM697.39 0L686.5 0 686.5-2.12 690.48-2.44 690.48-23.95 686.5-24.27 686.5-26.42 693.07-26.42 693.32-21.68Q694.58-24.17 696.73-25.54 698.88-26.9 701.86-26.9L701.86-26.9Q706.16-26.9 708.4-24.28 710.65-21.66 710.65-16.06L710.65-16.06 710.65-2.44 714.63-2.12 714.63 0 703.74 0 703.74-2.12 707.72-2.44 707.72-16.04Q707.72-20.63 706.03-22.51 704.35-24.39 701.23-24.39L701.23-24.39Q697.95-24.39 696.05-22.56 694.15-20.73 693.41-17.77L693.41-17.77 693.41-2.44 697.39-2.12 697.39 0ZM833.66 0.46L833.66 0.46Q830.88 0.46 829.34-1.26 827.8-2.98 827.8-6.81L827.8-6.81 827.8-24.05 823.24-24.05 823.24-26.42 827.8-26.42 827.8-33.2 830.73-33.2 830.73-26.42 836.89-26.42 836.89-24.05 830.73-24.05 830.73-6.81Q830.73-4.17 831.67-3.02 832.61-1.86 834.18-1.86L834.18-1.86Q835.01-1.86 835.81-1.97 836.62-2.08 837.47-2.2L837.47-2.2 837.91-0.1Q837.03 0.17 835.91 0.32 834.79 0.46 833.66 0.46ZM898.51 0L887.63 0 887.63-2.12 891.6-2.44 891.6-35.62 887.63-35.94 887.63-38.09 894.53-38.09 894.53-21.8Q895.83-24.22 898.01-25.56 900.2-26.9 903.15-26.9L903.15-26.9Q907.33-26.9 909.56-24.33 911.8-21.75 911.8-16.28L911.8-16.28 911.8-2.44 915.77-2.12 915.77 0 904.89 0 904.89-2.12 908.87-2.44 908.87-16.33Q908.87-20.65 907.18-22.52 905.5-24.39 902.49-24.39L902.49-24.39Q899.27-24.39 897.31-22.58 895.34-20.78 894.53-17.9L894.53-17.9 894.53-2.44 898.51-2.12 898.51 0ZM977.84 0.51L977.84 0.51Q974.45 0.51 971.86-1.14 969.27-2.78 967.81-5.7 966.34-8.62 966.34-12.43L966.34-12.43 966.34-13.77Q966.34-17.55 967.81-20.52 969.27-23.49 971.78-25.2 974.28-26.9 977.35-26.9L977.35-26.9Q980.6-26.9 982.91-25.51 985.22-24.12 986.45-21.59 987.68-19.07 987.68-15.65L987.68-15.65 987.68-13.16 969.37-13.16 969.32-12.08Q969.35-9.16 970.41-6.86 971.47-4.57 973.39-3.25 975.3-1.93 977.84-1.93L977.84-1.93Q980.33-1.93 982.23-2.72 984.12-3.52 985.56-4.88L985.56-4.88 986.8-2.88Q985.27-1.42 983.08-0.45 980.89 0.51 977.84 0.51ZM969.52-15.75L969.57-15.6 984.75-15.6 984.75-16.33Q984.75-18.65 983.86-20.5 982.97-22.34 981.32-23.39 979.67-24.44 977.35-24.44L977.35-24.44Q975.26-24.44 973.57-23.3 971.89-22.17 970.82-20.2 969.76-18.24 969.52-15.75L969.52-15.75ZM1108.43 10.67L1108.43 10.67Q1106.5 10.67 1104.35 10.21 1102.2 9.74 1100.59 8.96L1100.59 8.96 1101.37 6.52Q1102.93 7.28 1104.68 7.69 1106.42 8.11 1108.38 8.11L1108.38 8.11Q1112.14 8.11 1114.03 5.87 1115.92 3.64 1115.92-0.34L1115.92-0.34 1115.92-3.56Q1114.6-1.64 1112.54-0.56 1110.48 0.51 1107.74 0.51L1107.74 0.51Q1104.57 0.51 1102.3-1.1 1100.03-2.71 1098.81-5.63 1097.59-8.54 1097.59-12.48L1097.59-12.48 1097.59-12.99Q1097.59-17.21 1098.81-20.34 1100.03-23.46 1102.31-25.18 1104.59-26.9 1107.79-26.9L1107.79-26.9Q1110.62-26.9 1112.7-25.68 1114.77-24.46 1116.07-22.27L1116.07-22.27 1116.38-26.42 1118.85-26.42 1118.85-0.34Q1118.85 3.05 1117.62 5.52 1116.38 7.98 1114.04 9.33 1111.7 10.67 1108.43 10.67ZM1108.28-2L1108.28-2Q1111.16-2 1113.05-3.32 1114.94-4.64 1115.92-6.93L1115.92-6.93 1115.92-19.02Q1114.99-21.34 1113.19-22.86 1111.38-24.39 1108.33-24.39L1108.33-24.39Q1105.76-24.39 1104.03-22.94 1102.3-21.48 1101.42-18.92 1100.54-16.36 1100.54-12.99L1100.54-12.99 1100.54-12.48Q1100.54-7.69 1102.48-4.85 1104.42-2 1108.28-2ZM1122.24-24.29L1118.26-23.9 1117.31-26.42 1122.24-26.42 1122.24-24.29ZM1182.9 0L1172.01 0 1172.01-2.12 1175.99-2.44 1175.99-23.95 1172.01-24.27 1172.01-26.42 1178.55-26.42 1178.87-22.39 1178.89-21.68Q1180.02-24.15 1181.94-25.52 1183.87-26.9 1186.56-26.9L1186.56-26.9Q1187.22-26.9 1187.96-26.79 1188.71-26.68 1189.05-26.56L1189.05-26.56 1188.68-23.88 1185.97-24.05Q1183.16-24.12 1181.38-22.44 1179.6-20.75 1178.92-17.97L1178.92-17.97 1178.92-2.44 1182.9-2.12 1182.9 0ZM1250.41 0.51L1250.41 0.51Q1246.84 0.51 1244.22-1.18 1241.6-2.88 1240.14-5.9 1238.69-8.91 1238.69-12.79L1238.69-12.79 1238.69-13.6Q1238.69-17.48 1240.14-20.48 1241.6-23.49 1244.22-25.2 1246.84-26.9 1250.36-26.9L1250.36-26.9Q1253.9-26.9 1256.52-25.2 1259.15-23.49 1260.6-20.5 1262.05-17.5 1262.05-13.6L1262.05-13.6 1262.05-12.79Q1262.05-8.89 1260.6-5.88 1259.15-2.88 1256.52-1.18 1253.9 0.51 1250.41 0.51ZM1250.41-1.93L1250.41-1.93Q1253.12-1.93 1255.07-3.37 1257.02-4.81 1258.07-7.28 1259.12-9.74 1259.12-12.79L1259.12-12.79 1259.12-13.6Q1259.12-16.63 1258.07-19.09 1257.02-21.56 1255.06-23 1253.09-24.44 1250.36-24.44L1250.36-24.44Q1247.63-24.44 1245.66-23 1243.69-21.56 1242.66-19.09 1241.62-16.63 1241.62-13.6L1241.62-13.6 1241.62-12.79Q1241.62-9.72 1242.66-7.26 1243.69-4.81 1245.66-3.37 1247.63-1.93 1250.41-1.93ZM1323.98 0.51L1323.98 0.51Q1319.83 0.51 1317.52-2.32 1315.21-5.15 1315.21-11.11L1315.21-11.11 1315.21-23.95 1311.94-24.27 1311.94-26.42 1315.21-26.42 1318.14-26.42 1318.14-11.06Q1318.14-6.23 1319.73-4.11 1321.31-2 1324.32-2L1324.32-2Q1327.71-2 1329.62-3.58 1331.52-5.15 1332.23-7.81L1332.23-7.81 1332.23-23.95 1328.47-24.27 1328.47-26.42 1332.23-26.42 1335.18-26.42 1335.18-2.44 1338.72-2.12 1338.72 0 1332.59 0 1332.35-4.35Q1331.1-2.03 1329.02-0.76 1326.93 0.51 1323.98 0.51ZM1399.96 0L1389.07 0 1389.07-2.12 1393.05-2.44 1393.05-23.95 1389.07-24.27 1389.07-26.42 1395.64-26.42 1395.88-21.68Q1397.15-24.17 1399.3-25.54 1401.45-26.9 1404.43-26.9L1404.43-26.9Q1408.72-26.9 1410.97-24.28 1413.22-21.66 1413.22-16.06L1413.22-16.06 1413.22-2.44 1417.2-2.12 1417.2 0 1406.31 0 1406.31-2.12 1410.29-2.44 1410.29-16.04Q1410.29-20.63 1408.6-22.51 1406.92-24.39 1403.79-24.39L1403.79-24.39Q1400.52-24.39 1398.62-22.56 1396.71-20.73 1395.98-17.77L1395.98-17.77 1395.98-2.44 1399.96-2.12 1399.96 0ZM1478.12 0.51L1478.12 0.51Q1474.97 0.51 1472.7-1.1 1470.43-2.71 1469.23-5.62 1468.03-8.52 1468.03-12.48L1468.03-12.48 1468.03-12.99Q1468.03-17.21 1469.23-20.34 1470.43-23.46 1472.71-25.18 1474.99-26.9 1478.17-26.9L1478.17-26.9Q1480.93-26.9 1482.96-25.73 1485-24.56 1486.32-22.46L1486.32-22.46 1486.32-35.62 1482.34-35.94 1482.34-38.09 1486.32-38.09 1489.25-38.09 1489.25-2.44 1493.23-2.12 1493.23 0 1486.64 0 1486.42-3.74Q1485.12-1.73 1483.02-0.61 1480.93 0.51 1478.12 0.51ZM1478.65-2L1478.65-2Q1481.51-2 1483.42-3.3 1485.32-4.59 1486.32-6.81L1486.32-6.81 1486.32-19.14Q1485.37-21.44 1483.54-22.91 1481.71-24.39 1478.7-24.39L1478.7-24.39Q1476.14-24.39 1474.43-22.95 1472.72-21.51 1471.86-18.95 1470.99-16.38 1470.99-12.99L1470.99-12.99 1470.99-12.48Q1470.99-7.69 1472.9-4.85 1474.82-2 1478.65-2Z" opacity="1" transform="matrix(1,0,0,1,0,0)" fill="#ffffff" class="undefined-text-1" data-fill-palette-color="secondary" id="text-1"></path></svg></g></svg></g></svg></g></svg></g></svg></g></svg></g></svg></g></svg></g></svg><rect width="395.52" height="247.2" fill="none" stroke="none" visibility="hidden"></rect></g></svg></g></svg>